<svg width="1080" height="1080" version="1.1" xmlns="http://www.w3.org/2000/svg" desc="Created with ImageTracerAndroid.java version 1.1.2" ><path desc="l 0 p 0" fill="rgb(0,0,0)" stroke="rgb(0,0,0)" stroke-width="1" opacity="0.0" d="M 0.5 0.0 L 1080.0 0.5 L 1079.5 1080.0 L 0.0 1079.5 L 0.5 0.0 Z" /><path desc="l 25 p 0" fill="rgb(255,0,0)" stroke="rgb(255,0,0)" stroke-width="1" opacity="1.0" d="M 507.5 24.0 L 523.5 24.0 L 530.0 24.5 L 533.5 25.0 L 541.0 26.5 L 547.0 28.5 L 555.0 32.5 Q 567.6019897460938 38.39799880981445 576.0 48.5 L 583.0 57.5 L 589.5 71.0 L 599.0 95.5 L 605.5 113.0 L 609.5 123.0 L 616.5 141.0 L 625.5 165.0 L 631.0 179.5 L 635.0 191.5 L 638.5 199.0 L 642.5 210.0 L 657.5 249.0 L 675.0 295.5 L 684.5 320.0 L 716.0 402.5 L 725.0 426.5 L 734.0 449.5 L 740.5 467.0 L 743.0 473.5 L 745.5 477.0 L 752.0 477.5 L 754.5 478.0 L 763.5 479.0 L 769.0 479.5 L 771.5 480.0 L 782.0 481.5 L 788.5 482.0 L 793.5 483.0 Q 796.0 485.0 801.5 484.0 L 822.5 487.0 L 839.5 489.0 L 847.5 490.0 L 853.0 490.5 L 865.5 493.0 L 873.0 493.5 L 875.5 494.0 L 883.5 495.0 L 898.5 497.0 L 904.0 497.5 L 912.5 499.0 L 921.0 499.5 L 927.0 500.5 L 938.5 502.0 Q 943.3330078125 501.1669921875 945.5 503.0 Q 947.3330078125 504.6669921875 951.5 504.0 L 958.5 505.0 L 969.5 507.0 L 981.5 513.0 Q 988.7119750976562 515.7880249023438 993.5 521.0 L 1000.0 526.5 L 1007.5 536.0 L 1012.0 543.5 L 1014.0 548.5 L 1018.0 558.5 L 1020.0 568.5 L 1020.5 572.0 L 1021.0 587.5 Q 1019.25 588.25 1020.0 591.5 L 1019.0 596.5 L 1017.5 602.0 L 1015.0 608.5 L 1012.0 615.5 L 1009.0 620.5 Q 1008.375 624.375 1005.5 626.0 L 993.5 639.0 L 989.0 641.5 L 988.5 643.0 L 973.5 650.0 L 965.5 653.0 L 955.5 655.0 L 949.5 656.0 L 937.5 656.0 L 935.5 655.0 L 932.0 654.5 L 926.5 654.0 L 920.0 653.5 L 917.5 653.0 L 914.5 652.0 L 900.5 651.0 L 897.5 650.0 L 893.0 649.5 L 882.5 648.0 L 880.0 647.5 L 874.5 647.0 L 869.0 646.5 L 866.5 646.0 L 864.0 645.5 L 858.5 645.0 L 853.0 644.5 L 850.5 644.0 L 842.5 643.0 L 837.0 642.5 L 831.0 641.5 L 806.5 638.0 L 806.0 639.5 L 808.0 643.5 L 811.0 651.5 L 819.5 674.0 L 854.0 764.5 L 868.5 803.0 L 879.0 829.5 L 885.5 847.0 L 889.0 857.5 L 890.5 860.0 L 891.0 862.5 L 894.5 870.0 L 897.0 878.5 L 901.0 886.5 L 903.0 892.5 L 904.5 898.0 L 905.0 901.5 L 907.0 907.5 L 907.5 912.0 L 908.0 929.5 Q 906.25 930.25 907.0 933.5 L 906.0 938.5 L 904.0 946.5 L 902.5 950.0 L 897.5 960.0 Q 892.1380004882812 969.6380004882812 884.5 977.0 L 865.5 990.0 L 856.5 993.0 L 843.5 996.0 L 836.5 997.0 L 823.5 997.0 L 820.5 996.0 L 813.5 995.0 L 803.0 991.5 L 793.5 987.0 L 778.5 978.0 L 774.5 975.0 L 770.5 973.0 L 738.0 952.5 L 688.0 921.5 L 604.5 870.0 L 589.0 860.5 L 575.0 851.5 L 560.0 842.5 L 554.0 838.5 L 547.0 834.5 L 541.0 830.5 L 526.0 821.5 L 467.5 785.0 L 366.5 723.0 L 300.0 900.5 L 290.5 926.0 L 280.5 952.0 L 278.0 959.5 L 275.0 966.5 L 267.0 979.5 L 254.5 993.0 L 248.5 997.0 L 234.5 1004.0 L 225.5 1007.0 L 220.5 1008.0 L 218.0 1008.5 L 212.5 1009.0 L 194.5 1009.0 Q 193.5 1007.0 189.5 1008.0 L 187.5 1007.0 L 181.0 1005.5 Q 171.08200073242188 1002.4180297851562 164.0 996.5 L 156.0 990.5 L 145.0 979.5 Q 138.34800720214844 970.6519775390625 134.5 959.0 L 131.0 945.5 L 130.0 938.5 L 130.0 924.5 L 131.0 921.5 L 132.0 916.5 L 135.0 907.5 L 137.0 901.5 L 141.0 890.5 L 162.0 834.5 L 210.0 706.5 L 228.0 658.5 L 232.0 646.5 Q 234.60000610351562 645.0999755859375 234.0 640.5 L 214.0 628.5 L 208.0 624.5 L 194.5 617.0 L 179.5 607.0 L 162.0 596.5 L 150.5 589.0 L 103.5 560.0 L 69.5 539.0 Q 60.262001037597656 535.2379760742188 53.5 529.0 L 45.0 521.5 L 37.5 512.0 L 32.5 503.0 L 28.0 492.5 L 25.0 480.5 L 24.0 473.5 L 24.0 459.5 L 25.5 455.0 L 27.0 447.5 L 30.5 438.0 L 35.0 429.5 L 44.5 416.0 L 47.0 414.5 L 49.5 411.0 L 55.5 407.0 L 68.5 399.0 L 82.0 394.5 L 87.0 393.5 L 93.5 393.0 L 114.5 393.0 L 119.0 394.5 L 123.5 395.0 L 131.5 396.0 L 147.5 398.0 L 151.0 398.5 L 159.5 399.0 L 167.0 400.5 L 173.5 401.0 Q 174.5 403.0 178.5 402.0 Q 183.33299255371094 401.1669921875 185.5 403.0 L 191.5 404.0 L 223.5 408.0 L 235.0 409.5 L 243.5 410.0 L 248.5 411.0 L 252.0 411.5 L 257.5 413.0 L 265.0 413.5 L 267.5 414.0 L 275.5 415.0 L 299.5 418.0 L 317.5 420.0 L 325.5 398.0 L 343.5 350.0 L 416.0 156.5 L 429.0 122.5 L 439.5 94.0 L 447.0 73.5 Q 448.1910095214844 66.69100189208984 452.0 62.5 L 457.0 54.5 L 469.5 41.0 L 485.5 31.0 L 491.0 28.5 L 501.5 25.0 Q 506.25 26.25 507.5 24.0 Z" /><path desc="l 3 p 0" fill="rgb(255,255,255)" stroke="rgb(255,255,255)" stroke-width="1" opacity="1.0" d="M 512.5 42.0 L 526.0 42.5 L 538.5 45.0 L 544.5 48.0 L 551.5 52.0 L 566.0 65.5 L 569.5 72.0 L 572.0 76.5 L 574.0 82.5 L 577.0 91.5 L 579.0 94.5 L 580.0 97.5 L 583.0 107.5 L 588.0 118.5 L 590.0 125.5 L 593.0 131.5 L 594.0 134.5 L 597.5 144.0 L 601.0 153.5 L 604.0 160.5 L 607.0 168.5 Q 607.5120239257812 174.48800659179688 610.5 178.0 L 616.5 194.0 L 631.5 233.0 L 633.0 237.5 L 633.5 240.0 L 635.5 244.0 L 637.5 248.0 L 638.0 251.5 L 642.0 260.5 L 658.0 302.5 L 660.5 310.0 L 665.0 321.5 L 677.5 354.0 L 680.5 362.0 L 684.0 369.5 L 684.5 373.0 L 686.5 377.0 L 689.0 384.5 L 691.0 389.5 L 692.0 392.5 L 693.5 396.0 L 696.5 403.0 L 700.0 413.5 L 702.5 419.0 L 706.0 428.5 L 716.0 454.5 L 717.0 458.5 L 719.0 462.5 L 722.0 470.5 L 726.5 482.0 L 728.5 488.0 L 729.0 489.5 Q 728.5 492.5 730.5 493.0 L 739.5 495.0 L 742.0 495.5 L 747.5 496.0 L 754.0 496.5 L 756.5 497.0 L 759.0 497.5 L 764.5 498.0 L 770.0 498.5 L 775.0 499.5 L 785.0 500.5 L 791.0 501.5 L 802.5 503.0 L 808.0 503.5 L 810.5 504.0 L 817.5 505.0 L 840.5 508.0 L 855.5 510.0 L 862.5 511.0 L 869.5 512.0 L 877.5 513.0 L 884.5 514.0 L 893.5 515.0 L 909.5 517.0 L 916.5 518.0 L 919.0 518.5 L 924.5 519.0 L 931.0 519.5 L 939.5 521.0 L 946.5 522.0 L 951.0 522.5 L 956.5 524.0 L 965.5 527.0 L 973.0 531.5 L 985.0 542.5 L 990.0 550.5 Q 993.1380004882812 553.8619995117188 994.0 559.5 L 997.0 568.5 L 997.5 579.0 L 998.0 582.5 Q 996.25 583.25 997.0 586.5 L 996.5 591.0 L 995.0 596.5 L 994.0 599.5 L 990.5 607.0 L 988.0 610.5 L 980.5 621.0 L 966.0 630.5 L 963.5 632.0 L 958.5 634.0 L 953.0 635.5 L 949.5 636.0 L 945.0 636.5 L 934.5 637.0 Q 933.75 635.25 930.5 636.0 L 923.5 635.0 L 909.5 633.0 L 901.5 632.0 L 896.0 631.5 L 893.5 631.0 L 891.0 630.5 L 885.5 630.0 L 880.0 629.5 L 875.0 628.5 L 869.0 627.5 L 863.5 627.0 L 858.0 626.5 L 855.5 626.0 L 846.5 625.0 L 841.0 624.5 L 838.5 624.0 L 832.5 623.0 Q 829.25 623.75 828.5 622.0 L 821.0 621.5 L 817.5 621.0 L 809.5 620.0 L 804.0 619.5 L 801.5 619.0 L 794.5 618.0 L 789.0 617.5 L 786.5 617.0 L 784.0 616.5 L 778.5 616.0 L 778.0 617.5 L 793.0 656.5 L 795.0 662.5 L 799.0 672.5 L 800.0 675.5 L 802.0 680.5 L 811.0 703.5 L 817.5 721.0 Q 817.7230224609375 726.2769775390625 820.5 729.0 L 823.5 736.0 L 825.0 740.5 L 826.0 743.5 L 828.0 748.5 L 832.0 760.5 L 833.5 763.0 L 834.0 765.5 L 836.5 770.0 L 837.0 772.5 L 840.5 782.0 L 843.5 789.0 L 846.0 797.5 L 851.0 808.5 L 852.0 812.5 L 854.0 816.5 L 858.5 830.0 L 861.5 836.0 L 865.0 847.5 L 868.0 853.5 L 869.5 858.0 L 878.5 881.0 L 886.0 900.5 L 888.0 907.5 L 889.0 912.5 L 889.5 915.0 L 890.0 924.5 Q 888.25 925.25 889.0 928.5 Q 889.6669921875 932.6669921875 888.0 934.5 L 884.5 945.0 L 878.5 956.0 L 877.0 956.5 L 867.5 967.0 L 855.5 974.0 L 850.5 976.0 L 844.0 977.5 L 838.0 978.5 L 828.5 979.0 L 825.5 978.0 L 819.5 978.0 L 809.5 974.0 L 799.0 968.5 L 775.0 953.5 L 736.0 929.5 L 729.5 925.0 L 721.5 921.0 L 717.0 917.5 L 714.5 916.0 L 711.5 915.0 L 698.0 905.5 L 690.5 901.0 L 670.0 888.5 L 653.5 878.0 L 645.5 874.0 Q 643.3499755859375 870.6500244140625 639.0 869.5 L 623.0 859.5 L 613.5 854.0 L 611.5 852.0 L 608.5 851.0 L 598.5 845.0 Q 595.8930053710938 841.1069946289062 590.5 840.0 L 576.0 830.5 L 569.0 826.5 Q 565.5999755859375 821.9000244140625 559.0 820.5 L 552.0 815.5 Q 550.375 812.625 546.5 812.0 L 544.5 811.0 L 538.0 806.5 L 529.0 801.5 L 523.0 797.5 L 505.0 786.5 L 476.5 769.0 L 470.5 765.0 L 467.5 764.0 L 460.5 759.0 L 457.0 756.5 L 452.5 754.0 L 430.5 741.0 L 425.5 737.0 L 414.5 731.0 L 410.0 727.5 L 406.5 726.0 L 399.0 721.5 L 389.5 715.0 L 369.0 702.5 Q 364.48699951171875 698.0130004882812 357.5 696.0 L 355.0 700.5 L 351.0 710.5 L 348.0 720.5 Q 344.86199951171875 723.8619995117188 344.0 729.5 L 339.0 744.5 L 336.5 751.0 L 334.0 756.5 L 329.0 771.5 L 326.5 776.0 L 326.0 779.5 L 321.5 790.0 L 318.0 799.5 L 315.0 806.5 L 312.0 814.5 L 310.0 820.5 L 306.0 830.5 L 305.0 834.5 L 303.0 838.5 L 297.0 855.5 L 293.0 867.5 L 288.5 878.0 Q 286.43798828125 879.43798828125 287.0 883.5 L 281.5 896.0 L 278.0 907.5 Q 274.86199951171875 910.8619995117188 274.0 916.5 L 273.0 919.5 L 272.5 922.0 L 271.0 924.5 L 267.5 934.0 L 266.0 938.5 L 264.0 942.5 L 262.0 947.5 L 260.0 955.5 Q 254.50799560546875 968.5079956054688 244.5 977.0 Q 236.74099731445312 984.2410278320312 225.5 988.0 L 217.5 990.0 L 210.5 991.0 L 198.5 991.0 L 194.0 989.5 L 186.0 987.5 L 178.5 984.0 L 170.0 978.5 L 164.0 973.5 L 158.5 966.0 L 156.0 961.5 Q 152.1909942626953 957.3090209960938 151.0 950.5 L 149.0 944.5 L 148.5 938.0 L 148.0 935.5 Q 150.0 934.5 149.0 930.5 L 149.5 923.0 L 150.0 919.5 L 154.5 907.0 L 157.0 899.5 L 164.0 882.5 L 166.0 876.5 L 170.0 866.5 L 171.0 862.5 L 173.0 858.5 L 175.0 853.5 L 176.0 848.5 L 182.0 835.5 L 183.0 831.5 L 183.5 829.0 L 185.5 825.0 L 189.0 816.5 L 192.0 807.5 L 198.0 791.5 L 200.0 787.5 L 201.0 782.5 L 207.0 767.5 L 209.5 760.0 L 213.5 751.0 L 215.0 746.5 L 215.5 744.0 L 217.0 741.5 L 219.5 735.0 L 220.0 731.5 L 226.5 716.0 Q 226.72300720214844 710.7230224609375 229.5 708.0 L 233.0 698.5 L 235.0 692.5 L 239.0 682.5 L 241.0 675.5 L 243.0 671.5 L 248.0 656.5 Q 251.13699340820312 653.1380004882812 252.0 647.5 L 255.0 639.5 L 257.0 633.5 L 240.0 622.5 L 230.0 616.5 L 226.0 613.5 L 222.0 611.5 L 217.5 609.0 L 214.0 606.5 L 201.0 598.5 L 123.0 550.5 L 119.0 547.5 L 114.5 545.0 L 87.5 528.0 L 79.0 523.5 L 72.5 519.0 L 68.5 517.0 L 64.0 513.5 L 59.0 509.5 L 52.0 500.5 L 47.5 492.0 L 45.0 484.5 L 43.5 478.0 L 43.0 459.5 L 44.5 455.0 L 46.5 448.0 L 50.0 440.5 L 53.5 435.0 L 62.5 425.0 Q 70.95500183105469 416.9549865722656 84.0 413.5 L 87.0 412.5 L 93.0 411.5 L 108.5 411.0 L 111.5 412.0 L 118.5 413.0 L 130.5 414.0 L 133.5 415.0 L 141.5 416.0 L 149.5 417.0 L 156.5 418.0 L 162.0 418.5 L 171.5 420.0 L 177.0 420.5 L 187.5 422.0 Q 190.75 421.25 191.5 423.0 L 198.5 423.0 L 202.5 424.0 L 209.5 425.0 L 217.5 426.0 L 230.0 427.5 L 236.5 428.0 L 238.5 429.0 L 242.0 429.5 L 247.5 430.0 L 253.0 430.5 L 262.5 432.0 L 268.0 432.5 L 270.5 433.0 L 278.5 434.0 L 290.5 435.0 L 292.5 436.0 L 296.0 436.5 L 303.5 437.0 L 311.0 438.5 L 319.5 439.0 Q 320.25 440.75 323.5 440.0 Q 327.5 439.0 328.5 441.0 L 334.0 430.5 L 335.0 426.5 L 336.0 423.5 L 338.0 418.5 L 341.0 410.5 L 343.5 403.0 L 346.5 396.0 Q 346.7229919433594 390.7229919433594 349.5 388.0 L 357.0 367.5 L 360.0 359.5 L 360.5 357.0 L 362.0 354.5 L 363.0 351.5 L 366.0 343.5 L 375.0 319.5 L 379.0 308.5 L 385.0 293.5 L 386.0 290.5 L 386.5 288.0 L 388.0 285.5 L 393.5 269.0 L 396.0 264.5 L 397.0 259.5 L 401.0 250.5 L 404.5 241.0 L 406.0 236.5 L 408.0 232.5 L 410.0 226.5 L 411.0 223.5 L 413.0 218.5 L 420.5 198.0 L 431.0 170.5 L 431.5 168.0 L 434.0 163.5 L 438.5 150.0 L 441.5 142.0 L 448.0 125.5 L 449.0 121.5 L 451.0 117.5 L 456.0 102.5 L 459.0 96.5 L 460.0 91.5 L 463.5 83.0 Q 469.260009765625 64.26000213623047 483.5 54.0 Q 491.4169921875 46.91699981689453 503.5 44.0 L 508.5 43.0 Q 511.75 43.75 512.5 42.0 Z" /><path desc="l 25 p 1" fill="rgb(255,0,0)" stroke="rgb(255,0,0)" stroke-width="1" opacity="1.0" d="M 519.5 263.0 L 522.0 269.5 L 523.5 274.0 L 527.0 282.5 Q 527.5120239257812 288.4880065917969 530.5 292.0 L 533.5 299.0 L 535.0 303.5 L 537.0 308.5 L 546.5 333.0 L 548.0 337.5 L 550.0 342.5 L 553.0 350.5 Q 553.5120239257812 356.4880065917969 556.5 360.0 L 559.0 365.5 L 560.0 368.5 L 563.5 378.0 L 565.0 381.5 L 566.0 386.5 L 569.5 394.0 L 572.5 402.0 L 579.0 418.5 L 580.0 421.5 L 580.5 424.0 L 582.0 426.5 L 585.5 436.0 L 595.5 462.0 L 598.5 471.0 L 601.0 476.5 L 598.5 477.0 L 594.0 475.5 L 586.0 474.5 L 580.5 474.0 L 574.5 473.0 L 567.5 472.0 L 562.0 471.5 L 559.5 471.0 L 557.0 470.5 L 551.5 470.0 L 546.0 469.5 L 543.5 469.0 L 522.5 466.0 L 520.0 465.5 L 514.5 465.0 L 509.0 464.5 L 506.5 464.0 L 498.5 463.0 L 487.5 462.0 Q 486.75 460.25 483.5 461.0 Q 480.25 461.75 479.5 460.0 L 471.0 459.5 L 466.5 459.0 L 463.5 458.0 L 455.0 457.5 L 447.0 455.5 L 451.5 444.0 L 453.0 439.5 L 454.0 436.5 L 456.0 431.5 L 458.5 425.0 Q 458.51300048828125 420.51300048828125 461.0 418.5 L 466.0 404.5 L 470.5 393.0 L 477.0 376.5 L 480.5 366.0 L 484.0 356.5 L 487.0 349.5 L 489.5 342.0 L 496.0 325.5 L 497.0 322.5 L 497.5 320.0 L 499.0 317.5 L 502.0 308.5 L 504.0 302.5 L 505.5 299.0 L 507.5 295.0 L 508.0 291.5 L 512.0 282.5 L 515.5 272.0 L 519.5 263.0 Z" /><path desc="l 0 p 1" fill="rgb(0,0,0)" stroke="rgb(0,0,0)" stroke-width="1" opacity="0.0" d="M 519.5 316.0 L 525.5 331.0 L 527.0 335.5 L 529.0 339.5 L 538.0 363.5 L 541.5 373.0 L 545.0 381.5 L 563.0 428.5 L 569.5 446.0 L 572.0 453.5 L 570.5 453.0 L 561.0 452.5 L 555.0 451.5 L 549.0 450.5 L 539.0 449.5 L 527.5 448.0 L 522.0 447.5 L 519.5 447.0 L 511.5 446.0 L 504.5 445.0 L 496.5 444.0 Q 492.3330078125 444.6669921875 490.5 443.0 L 483.5 442.0 L 478.0 441.5 L 472.0 440.5 L 475.0 433.5 L 481.0 417.5 L 508.0 345.5 L 516.0 324.5 L 518.0 319.5 Q 517.5 316.5 519.5 316.0 Z" /><path desc="l 25 p 2" fill="rgb(255,0,0)" stroke="rgb(255,0,0)" stroke-width="1" opacity="1.0" d="M 405.5 567.0 L 421.5 569.0 L 426.0 569.5 L 433.5 571.0 L 442.0 571.5 L 444.5 572.0 L 451.5 573.0 L 471.0 575.5 L 481.5 577.0 L 490.5 578.0 L 496.0 578.5 L 498.5 579.0 L 506.5 580.0 L 517.0 581.5 L 534.5 584.0 L 537.0 584.5 L 543.5 585.0 L 550.0 585.5 L 552.5 586.0 L 570.0 588.5 L 581.5 590.0 L 588.5 591.0 L 597.5 592.0 Q 602.3330078125 591.1669921875 604.5 593.0 L 611.5 594.0 L 623.0 595.5 L 632.0 596.5 L 638.5 597.0 L 641.5 598.0 L 645.0 598.5 L 649.0 600.5 L 653.5 614.0 L 656.0 620.5 L 657.0 624.5 L 659.0 628.5 L 660.0 631.5 L 663.0 639.5 L 668.5 653.0 L 670.0 657.5 L 672.5 664.0 L 691.5 714.0 L 696.0 726.5 Q 697.75 727.25 697.0 730.5 Q 700.0 732.5 700.5 737.0 L 704.0 746.5 L 707.0 754.5 L 708.0 757.5 L 711.0 764.5 L 717.0 781.5 L 715.5 782.0 Q 711.9500122070312 777.5499877929688 706.0 775.5 L 698.0 770.5 L 666.5 751.0 L 643.0 736.5 L 629.0 727.5 L 607.0 714.5 Q 604.3330078125 710.6669921875 599.5 709.0 Q 593.6119995117188 707.3880004882812 590.0 703.5 L 567.0 689.5 L 548.5 678.0 L 537.0 670.5 L 531.0 667.5 L 525.0 663.5 L 512.5 656.0 L 510.5 654.0 L 507.5 653.0 L 500.0 648.5 L 499.5 647.0 L 491.0 642.5 L 483.0 637.5 L 476.5 633.0 L 468.5 629.0 L 461.5 624.0 L 455.0 620.5 L 451.5 618.0 L 399.0 585.5 L 402.0 575.5 L 403.0 572.5 L 405.5 567.0 Z" /><path desc="l 0 p 2" fill="rgb(0,0,0)" stroke="rgb(0,0,0)" stroke-width="1" opacity="0.0" d="M 443.5 590.0 L 445.5 591.0 L 451.5 591.0 Q 452.25 592.75 455.5 592.0 L 464.0 593.5 L 469.5 594.0 L 476.0 594.5 L 484.5 596.0 L 492.0 596.5 L 498.5 598.0 L 506.0 598.5 L 509.5 599.0 L 527.0 601.5 L 537.5 603.0 L 543.0 603.5 L 545.5 604.0 L 554.5 605.0 L 560.0 605.5 L 562.5 606.0 L 565.0 606.5 L 570.5 607.0 L 580.5 608.0 L 582.5 609.0 L 588.5 609.0 L 591.5 610.0 L 596.0 610.5 L 615.5 613.0 L 618.5 614.0 L 626.5 614.0 L 630.5 615.0 Q 634.5 614.5 635.0 617.5 L 668.0 704.5 L 675.0 722.5 L 677.0 728.5 L 681.0 737.5 L 680.0 737.5 L 678.5 736.0 L 633.5 709.0 L 619.0 699.5 L 593.0 683.5 L 505.5 629.0 L 459.0 600.5 L 448.5 594.0 Q 443.9169921875 592.8330078125 443.5 590.0 Z" /></svg>