<svg width="1080" height="1080" version="1.1" xmlns="http://www.w3.org/2000/svg" desc="Created with ImageTracerAndroid.java version 1.1.2" ><path desc="l 0 p 0" fill="rgb(0,0,0)" stroke="rgb(0,0,0)" stroke-width="1" opacity="0.0" d="M 0.5 0.0 L 1080.0 0.5 L 1079.5 1080.0 L 0.0 1079.5 L 0.5 0.0 Z" /><path desc="l 5 p 0" fill="rgb(255,0,0)" stroke="rgb(255,0,0)" stroke-width="1" opacity="1.0" d="M 545.5 104.0 L 564.0 104.5 L 574.0 106.5 L 583.0 109.5 L 591.0 113.5 Q 603.7999877929688 119.19999694824219 612.0 129.5 Q 618.5999755859375 135.39999389648438 622.0 144.5 L 628.5 159.0 L 644.5 195.0 L 704.0 330.5 L 791.5 530.0 L 817.5 589.0 L 831.0 621.5 L 865.0 698.5 L 873.0 715.5 L 882.0 737.5 L 952.0 895.5 L 971.0 938.5 L 976.0 950.5 L 978.5 963.0 L 979.0 985.5 Q 973.7999877929688 1014.7999877929688 955.5 1031.0 L 942.5 1041.0 Q 924.7999877929688 1051.800048828125 895.5 1051.0 L 881.0 1047.5 Q 870.5999755859375 1045.4000244140625 863.5 1040.0 L 838.0 1024.5 L 757.0 976.5 L 593.0 878.5 L 523.5 838.0 L 472.0 806.5 L 455.5 797.0 Q 443.6000061035156 790.4000244140625 435.0 780.5 Q 427.3999938964844 771.5999755859375 423.0 759.5 Q 419.0 753.0 418.5 743.0 L 418.0 719.5 L 421.0 706.5 L 427.0 694.5 Q 433.1000061035156 680.5999755859375 444.5 672.0 L 453.5 666.0 L 462.0 661.5 L 471.0 658.5 L 483.0 655.5 L 503.5 655.0 L 519.5 659.0 Q 533.0999755859375 663.4000244140625 543.0 671.5 L 585.0 696.5 L 737.5 787.0 L 737.0 785.5 L 551.5 363.0 L 324.0 836.5 L 263.5 962.0 L 247.0 996.5 Q 243.39999389648438 1007.4000244140625 236.0 1014.5 L 225.5 1026.0 L 209.5 1035.0 Q 202.5 1040.0 191.5 1041.0 L 177.5 1043.0 L 174.5 1042.0 L 167.5 1042.0 Q 153.1999969482422 1040.800048828125 143.5 1035.0 Q 129.5 1028.5 120.0 1017.5 Q 109.0 1006.5 104.5 989.0 L 102.0 978.5 L 101.0 970.5 L 101.0 956.5 L 104.0 946.5 L 106.0 939.5 L 110.5 929.0 L 128.0 891.5 L 185.5 773.0 L 390.5 346.0 L 461.0 199.5 L 478.5 163.0 L 485.0 148.5 Q 491.5 134.0 502.5 124.0 Q 518.7999877929688 108.80000305175781 545.5 104.0 Z" /><path desc="l 59 p 0" fill="rgb(21,21,21)" stroke="rgb(21,21,21)" stroke-width="1" opacity="0.08235294117647059" d="M 595.5 115.0 L 596.5 117.0 L 595.5 115.0 Z" /><path desc="l 2 p 0" fill="rgb(255,255,255)" stroke="rgb(255,255,255)" stroke-width="1" opacity="1.0" d="M 546.5 123.0 L 564.0 123.5 L 568.5 124.0 L 582.0 129.5 L 598.0 141.5 L 604.0 150.5 L 609.0 160.5 L 623.0 192.5 L 652.0 259.5 L 660.0 276.5 L 663.0 283.5 L 671.0 301.5 L 677.5 317.0 L 681.0 326.5 L 696.0 358.5 L 729.0 434.5 L 823.0 648.5 L 852.0 714.5 L 867.0 749.5 L 892.0 805.5 L 936.0 905.5 L 939.5 913.0 L 942.0 920.5 L 955.0 947.5 L 960.0 960.5 L 960.5 965.0 L 961.0 983.5 Q 955.5999755859375 1010.0999755859375 936.5 1023.0 L 923.0 1029.5 L 912.5 1032.0 Q 907.0 1034.5 897.5 1033.0 L 890.5 1031.0 L 883.5 1029.0 L 872.5 1024.0 L 849.0 1009.5 L 770.0 962.5 L 560.0 837.5 L 483.5 792.0 L 460.5 778.0 Q 451.3999938964844 775.0999755859375 446.0 768.5 Q 427.0 753.5 428.0 718.5 Q 432.6000061035156 691.5999755859375 451.5 679.0 L 464.0 672.5 L 476.5 669.0 L 489.5 668.0 L 498.0 669.5 L 514.0 675.5 L 527.5 684.0 L 580.0 715.5 L 776.5 832.0 L 777.0 829.5 L 752.5 775.0 L 717.0 693.5 L 552.5 319.0 L 532.0 360.5 L 496.0 436.5 L 484.5 459.0 L 464.0 502.5 L 459.5 511.0 L 454.0 524.5 L 441.0 549.5 L 418.5 597.0 L 325.5 790.0 L 259.0 928.5 L 247.5 953.0 L 234.0 979.5 L 230.5 988.0 L 222.5 1003.0 L 221.0 1003.5 L 215.5 1010.0 L 201.5 1019.0 L 189.5 1023.0 L 182.5 1024.0 L 169.5 1024.0 L 157.5 1021.0 Q 144.39999389648438 1016.5999755859375 136.0 1007.5 L 135.5 1006.0 L 134.0 1005.5 L 125.0 991.5 L 120.0 976.5 L 119.0 963.5 L 120.0 959.5 L 121.0 953.5 L 124.0 943.5 L 130.0 930.5 Q 137.6999969482422 919.7000122070312 142.0 905.5 L 152.0 885.5 L 156.5 875.0 L 161.5 866.0 L 170.0 848.5 L 197.0 792.5 L 212.0 759.5 L 232.0 719.5 L 248.0 686.5 L 252.0 677.5 L 255.0 669.5 L 275.0 629.5 L 299.0 579.5 L 409.5 350.0 L 479.5 204.0 L 498.5 164.0 L 501.0 159.5 L 503.0 154.5 L 509.0 145.5 L 518.5 135.0 Q 529.2999877929688 125.80000305175781 546.5 123.0 Z" /><path desc="l 59 p 1" fill="rgb(21,21,21)" stroke="rgb(21,21,21)" stroke-width="1" opacity="0.08235294117647059" d="M 500.5 126.0 L 498.5 129.0 L 500.5 126.0 Z" /><path desc="l 59 p 2" fill="rgb(21,21,21)" stroke="rgb(21,21,21)" stroke-width="1" opacity="0.08235294117647059" d="M 612.5 130.0 L 614.5 133.0 L 612.5 130.0 Z" /><path desc="l 59 p 3" fill="rgb(21,21,21)" stroke="rgb(21,21,21)" stroke-width="1" opacity="0.08235294117647059" d="M 446.5 670.0 L 445.5 672.0 L 446.5 670.0 Z" /><path desc="l 59 p 4" fill="rgb(21,21,21)" stroke="rgb(21,21,21)" stroke-width="1" opacity="0.08235294117647059" d="M 417.5 729.0 L 418.0 732.5 L 417.0 732.5 L 417.5 729.0 Z" /><path desc="l 59 p 5" fill="rgb(21,21,21)" stroke="rgb(21,21,21)" stroke-width="1" opacity="0.08235294117647059" d="M 370.5 740.0 L 369.5 742.0 L 370.5 740.0 Z" /><path desc="l 59 p 6" fill="rgb(21,21,21)" stroke="rgb(21,21,21)" stroke-width="1" opacity="0.08235294117647059" d="M 431.5 775.0 L 432.5 777.0 L 431.5 775.0 Z" /><path desc="l 59 p 7" fill="rgb(21,21,21)" stroke="rgb(21,21,21)" stroke-width="1" opacity="0.08235294117647059" d="M 443.5 788.0 L 445.5 791.0 L 443.5 788.0 Z" /><path desc="l 59 p 8" fill="rgb(21,21,21)" stroke="rgb(21,21,21)" stroke-width="1" opacity="0.08235294117647059" d="M 587.5 875.0 L 588.5 877.0 L 587.5 875.0 Z" /><path desc="l 59 p 9" fill="rgb(21,21,21)" stroke="rgb(21,21,21)" stroke-width="1" opacity="0.08235294117647059" d="M 978.5 960.0 L 979.0 962.5 L 978.0 962.5 L 978.5 960.0 Z" /><path desc="l 59 p 10" fill="rgb(21,21,21)" stroke="rgb(21,21,21)" stroke-width="1" opacity="0.08235294117647059" d="M 978.5 986.0 L 979.0 988.5 L 978.0 988.5 L 978.5 986.0 Z" /><path desc="l 59 p 11" fill="rgb(21,21,21)" stroke="rgb(21,21,21)" stroke-width="1" opacity="0.08235294117647059" d="M 790.5 996.0 L 791.5 998.0 L 790.5 996.0 Z" /><path desc="l 59 p 12" fill="rgb(21,21,21)" stroke="rgb(21,21,21)" stroke-width="1" opacity="0.08235294117647059" d="M 116.5 1013.0 L 119.5 1017.0 L 116.5 1013.0 Z" /><path desc="l 59 p 13" fill="rgb(21,21,21)" stroke="rgb(21,21,21)" stroke-width="1" opacity="0.08235294117647059" d="M 235.5 1015.0 L 233.5 1018.0 L 235.5 1015.0 Z" /><path desc="l 59 p 14" fill="rgb(21,21,21)" stroke="rgb(21,21,21)" stroke-width="1" opacity="0.08235294117647059" d="M 967.5 1016.0 L 966.5 1018.0 L 967.5 1016.0 Z" /><path desc="l 59 p 15" fill="rgb(21,21,21)" stroke="rgb(21,21,21)" stroke-width="1" opacity="0.08235294117647059" d="M 965.5 1019.0 L 964.5 1021.0 L 965.5 1019.0 Z" /><path desc="l 59 p 16" fill="rgb(21,21,21)" stroke="rgb(21,21,21)" stroke-width="1" opacity="0.08235294117647059" d="M 216.5 1031.0 L 215.5 1033.0 L 216.5 1031.0 Z" /><path desc="l 59 p 17" fill="rgb(21,21,21)" stroke="rgb(21,21,21)" stroke-width="1" opacity="0.08235294117647059" d="M 954.5 1031.0 L 953.5 1033.0 L 954.5 1031.0 Z" /></svg>