<svg width="1920" height="1080" version="1.1" xmlns="http://www.w3.org/2000/svg" desc="Created with ImageTracerAndroid.java version 1.1.2" ><path desc="l 0 p 0" fill="rgb(0,0,0)" stroke="rgb(0,0,0)" stroke-width="1" opacity="1.0" d="M 0.5 0.0 L 1920.0 0.5 L 1919.5 1080.0 L 0.0 1079.5 L 0.5 0.0 Z" /><path desc="l 44 p 0" fill="rgb(142,59,59)" stroke="rgb(142,59,59)" stroke-width="1" opacity="1.0" d="M 634.5 39.0 L 645.5 40.0 L 664.0 42.5 L 703.5 48.0 L 731.5 52.0 L 737.5 53.0 L 747.5 55.0 L 749.5 55.0 L 777.5 58.0 L 805.5 63.0 L 807.5 63.0 L 852.5 69.0 L 865.5 71.0 L 873.5 75.0 L 879.0 78.5 L 877.5 79.0 L 871.5 75.0 L 865.5 73.0 L 855.5 71.0 L 846.5 70.0 L 806.5 64.0 L 741.5 55.0 L 707.5 50.0 L 700.5 49.0 L 689.5 47.0 L 673.0 45.5 L 661.0 43.5 L 648.0 41.5 L 633.5 41.0 Q 620.7999877929688 43.29999923706055 615.0 52.5 L 613.5 55.0 L 612.0 55.5 L 603.5 68.0 L 601.0 69.5 L 597.5 75.0 L 596.0 75.5 L 591.5 84.0 L 589.0 85.5 L 564.5 118.0 L 563.0 118.5 L 554.5 131.0 L 552.0 132.5 L 543.5 145.0 L 541.0 146.5 L 538.5 151.0 L 536.0 152.5 L 529.0 162.5 L 509.5 188.0 L 508.0 188.5 L 499.5 201.0 L 497.0 202.5 L 488.5 215.0 L 487.0 215.5 L 483.5 221.0 L 482.0 221.5 L 476.5 231.0 L 473.5 238.0 L 472.0 243.5 L 475.0 257.5 L 480.0 268.5 L 487.0 286.5 L 497.5 312.0 L 537.0 410.5 L 547.5 437.0 L 552.0 449.5 L 555.0 459.5 L 553.0 458.5 L 551.0 452.5 L 550.0 448.5 L 547.0 440.5 L 535.0 408.5 L 494.0 307.5 L 478.5 269.0 L 474.0 257.5 L 471.5 249.0 L 471.0 238.5 Q 473.79998779296875 237.3000030517578 473.5 233.0 L 484.0 218.5 L 497.5 200.0 L 499.0 199.5 L 536.5 150.0 L 539.0 148.5 L 546.0 138.5 L 563.5 116.0 L 565.0 115.5 L 584.5 89.0 L 587.0 87.5 L 601.5 67.0 L 604.0 65.5 L 609.5 58.0 L 621.5 44.0 L 634.5 39.0 Z" /><path desc="l 7 p 0" fill="rgb(254,0,0)" stroke="rgb(254,0,0)" stroke-width="1" opacity="1.0" d="M 633.5 41.0 Q 644.4000244140625 39.599998474121094 651.5 42.0 L 660.5 43.0 L 677.5 46.0 L 689.5 47.0 L 699.5 49.0 L 707.5 50.0 L 741.5 55.0 L 798.5 63.0 L 846.5 70.0 L 854.5 71.0 L 864.5 73.0 L 868.5 74.0 L 872.5 76.0 Q 879.9000244140625 78.5999984741211 884.0 84.5 L 885.0 86.5 L 885.0 88.5 L 931.5 204.0 L 940.5 226.0 L 943.0 232.5 L 948.0 243.5 L 949.0 247.5 L 951.0 252.5 L 961.0 277.5 L 966.5 291.0 L 970.0 302.5 L 971.0 306.5 L 970.0 309.5 Q 970.7000122070312 316.70001220703125 967.0 319.5 L 962.5 328.0 L 959.0 330.5 L 943.5 352.0 L 942.0 352.5 L 933.5 365.0 L 931.0 366.5 L 917.5 385.0 L 916.0 385.5 L 912.5 392.0 L 909.0 394.5 L 907.5 398.0 L 905.0 399.5 L 885.5 426.0 L 883.0 427.5 L 877.5 436.0 L 868.5 448.0 L 866.0 449.5 L 852.5 468.0 L 851.0 468.5 L 847.5 475.0 L 844.0 477.5 L 842.5 481.0 L 840.0 482.5 L 830.5 496.0 L 829.0 496.5 L 827.0 500.5 L 823.5 505.0 Q 819.4000244140625 509.3999938964844 811.5 510.0 L 799.5 511.0 L 782.5 508.0 L 763.5 506.0 L 752.5 504.0 Q 746.7999877929688 504.70001220703125 744.5 502.0 L 742.5 502.0 L 732.5 501.0 L 718.5 499.0 L 709.5 498.0 L 700.5 496.0 L 698.5 496.0 L 686.5 494.0 L 684.5 494.0 L 668.5 492.0 L 651.5 489.0 L 649.5 490.0 L 641.5 488.0 L 626.5 486.0 L 619.5 485.0 L 600.5 482.0 L 583.5 480.0 L 580.5 479.0 L 575.5 478.0 L 568.5 475.0 L 562.0 470.5 L 558.5 465.0 L 557.0 464.5 L 552.0 450.5 Q 551.2999877929688 442.20001220703125 547.5 437.0 L 541.0 419.5 Q 537.4000244140625 417.1000061035156 537.5 411.0 L 520.0 368.5 L 515.0 356.5 L 513.0 349.5 L 507.0 336.5 L 500.0 317.5 L 482.5 276.0 L 475.0 257.5 L 472.0 243.5 L 473.0 238.5 L 476.5 231.0 L 482.5 221.0 L 485.0 219.5 L 487.5 215.0 L 490.0 213.5 L 498.5 201.0 L 501.0 199.5 L 508.5 188.0 L 512.0 185.5 L 537.5 151.0 L 539.0 150.5 L 542.5 145.0 L 544.0 144.5 L 553.5 131.0 L 555.0 130.5 L 563.5 118.0 L 565.0 117.5 L 590.5 84.0 L 592.0 83.5 L 596.5 75.0 L 600.0 72.5 L 602.5 68.0 L 605.0 66.5 L 612.5 55.0 L 615.0 53.5 L 622.5 45.0 L 633.5 41.0 Z" /><path desc="l 44 p 1" fill="rgb(142,59,59)" stroke="rgb(142,59,59)" stroke-width="1" opacity="1.0" d="M 884.5 87.0 Q 890.5999755859375 93.9000015258789 893.0 104.5 L 903.0 129.5 L 918.5 168.0 Q 923.2000122070312 175.3000030517578 925.0 185.5 L 949.0 242.5 L 956.0 261.5 L 965.5 285.0 L 970.5 298.0 Q 973.2999877929688 303.29998779296875 972.0 312.5 Q 968.0 324.5 960.0 332.5 L 944.5 353.0 L 943.0 353.5 L 886.5 427.0 L 885.0 427.5 L 879.5 436.0 L 877.0 437.5 L 868.5 450.0 L 867.0 450.5 L 858.5 463.0 L 856.0 464.5 L 853.5 469.0 L 852.0 469.5 Q 841.4000244140625 486.8999938964844 827.5 501.0 L 827.0 499.5 L 829.5 496.0 L 832.0 494.5 L 841.5 481.0 L 843.0 480.5 L 846.5 475.0 L 848.0 474.5 L 851.5 468.0 L 853.0 467.5 L 867.5 448.0 L 869.0 447.5 L 884.5 426.0 L 886.0 425.5 L 906.5 398.0 L 908.0 397.5 L 911.5 392.0 L 913.0 391.5 L 916.5 385.0 L 919.0 383.5 L 932.5 365.0 L 935.0 363.5 L 942.5 352.0 L 945.0 350.5 L 961.5 328.0 L 963.0 327.5 L 967.0 319.5 L 971.0 308.5 L 970.0 305.5 Q 971.5 300.0 969.0 298.5 L 963.5 284.0 L 952.5 257.0 L 949.5 249.0 L 948.0 243.5 L 943.0 233.5 L 941.0 226.5 L 931.5 204.0 L 898.0 120.5 L 889.0 98.5 L 884.5 87.0 Z" /><path desc="l 44 p 2" fill="rgb(142,59,59)" stroke="rgb(142,59,59)" stroke-width="1" opacity="1.0" d="M 676.5 100.0 L 683.0 100.5 L 690.5 102.0 L 692.5 102.0 L 728.5 107.0 L 736.5 108.0 L 752.5 111.0 L 760.0 111.5 L 766.5 113.0 L 768.5 112.0 L 777.5 114.0 L 790.5 116.0 L 795.5 117.0 L 797.5 117.0 L 824.5 121.0 L 826.5 121.0 L 834.5 122.0 Q 841.0999755859375 121.4000015258789 843.0 125.5 L 844.0 129.5 L 847.0 137.5 L 850.0 143.5 L 851.0 147.5 L 854.0 154.5 L 858.0 164.5 L 861.0 170.5 L 862.0 174.5 L 864.5 181.0 L 873.5 203.0 L 903.0 277.5 Q 902.0 280.0 897.5 279.0 L 886.0 276.5 L 863.5 273.0 L 792.5 260.0 L 766.0 255.5 L 754.5 254.0 L 744.5 252.0 L 739.0 248.5 L 715.0 191.5 L 710.0 180.5 L 707.0 171.5 Q 697.4000244140625 156.10000610351562 692.0 136.5 L 687.5 128.0 L 684.0 118.5 Q 680.7999877929688 116.69999694824219 681.0 111.5 L 677.5 105.0 L 676.5 100.0 Z" /><path desc="l 0 p 1" fill="rgb(0,0,0)" stroke="rgb(0,0,0)" stroke-width="1" opacity="1.0" d="M 678.5 102.0 L 693.5 103.0 L 704.5 105.0 L 711.5 106.0 L 788.5 117.0 L 827.0 122.5 L 836.5 124.0 Q 840.2999877929688 123.30000305175781 841.0 125.5 L 852.0 153.5 L 884.0 232.5 Q 891.5999755859375 255.89999389648438 902.0 276.5 Q 900.7999877929688 279.29998779296875 899.5 277.0 L 885.5 275.0 L 865.0 271.5 L 782.5 257.0 L 754.5 252.0 L 748.5 251.0 Q 742.0999755859375 251.39999389648438 740.0 247.5 L 678.5 102.0 Z" /><path desc="l 44 p 3" fill="rgb(142,59,59)" stroke="rgb(142,59,59)" stroke-width="1" opacity="1.0" d="M 626.5 124.0 L 638.5 149.0 L 653.0 182.5 L 678.0 242.5 L 684.0 254.5 L 687.0 261.5 L 689.0 269.5 L 682.5 277.0 L 681.0 277.5 L 674.5 287.0 L 672.0 288.5 L 663.5 301.0 L 662.0 301.5 L 639.5 330.0 L 638.0 330.5 L 630.5 341.0 L 629.0 341.5 L 622.5 351.0 L 620.0 352.5 L 589.5 391.0 L 586.0 389.5 L 544.5 286.0 L 534.0 260.5 L 530.0 248.5 L 545.5 227.0 L 547.0 226.5 L 555.5 214.0 L 558.0 212.5 L 593.5 166.0 L 596.0 164.5 L 602.5 155.0 L 610.5 144.0 L 613.0 142.5 L 620.5 131.0 L 623.0 129.5 L 626.5 124.0 Z" /><path desc="l 0 p 2" fill="rgb(0,0,0)" stroke="rgb(0,0,0)" stroke-width="1" opacity="1.0" d="M 626.5 127.0 L 632.0 137.5 L 635.0 145.5 L 645.0 167.5 L 647.0 172.5 L 648.0 176.5 L 660.5 204.0 L 688.0 268.5 L 644.5 322.0 L 642.0 323.5 L 630.5 339.0 L 628.0 340.5 L 620.5 351.0 L 619.0 351.5 L 597.5 379.0 L 596.0 379.5 L 588.5 389.0 L 587.0 388.5 L 576.0 360.5 L 558.0 317.5 L 558.0 315.5 L 531.0 248.5 L 535.5 242.0 L 537.0 241.5 L 545.5 229.0 L 548.0 227.5 L 556.5 215.0 L 559.0 213.5 L 604.5 154.0 L 607.0 152.5 L 611.5 145.0 L 613.0 144.5 L 626.5 127.0 Z" /><path desc="l 7 p 1" fill="rgb(254,0,0)" stroke="rgb(254,0,0)" stroke-width="1" opacity="1.0" d="M 1226.5 168.0 L 1240.5 169.0 L 1259.5 171.0 L 1315.5 177.0 L 1550.5 202.0 L 1569.5 204.0 L 1583.5 205.0 L 1586.5 206.0 L 1593.0 206.5 L 1602.5 207.0 L 1607.5 208.0 L 1621.0 209.5 L 1639.5 211.0 L 1642.5 212.0 L 1649.0 212.5 L 1658.5 213.0 Q 1659.800048828125 215.3000030517578 1664.5 214.0 Q 1676.5999755859375 216.39999389648438 1683.0 224.5 L 1700.0 261.5 L 1727.0 323.5 L 1816.0 522.5 L 1849.0 598.5 L 1860.0 622.5 L 1863.5 632.0 L 1864.0 641.5 Q 1861.800048828125 652.2999877929688 1855.0 658.5 L 1838.5 681.0 L 1790.0 747.5 L 1658.5 928.0 L 1619.5 982.0 L 1607.5 998.0 L 1597.5 1010.0 Q 1590.699951171875 1015.7000122070312 1577.5 1015.0 L 1572.5 1014.0 L 1558.0 1012.5 L 1497.5 1006.0 L 1253.5 980.0 L 1173.0 971.5 L 1154.0 969.5 Q 1136.0999755859375 969.4000244140625 1129.0 958.5 L 1114.0 926.5 L 1090.0 872.5 L 994.5 657.0 L 961.0 581.5 L 953.0 562.5 Q 946.0999755859375 555.4000244140625 948.0 539.5 L 956.5 524.0 L 971.0 504.5 L 1026.0 429.5 L 1211.5 175.0 Q 1217.199951171875 169.6999969482422 1226.5 168.0 Z" /><path desc="l 0 p 3" fill="rgb(0,0,0)" stroke="rgb(0,0,0)" stroke-width="1" opacity="1.0" d="M 1241.5 221.0 L 1523.5 251.0 L 1585.0 257.5 L 1603.5 259.0 L 1618.0 261.5 Q 1619.0 266.0 1616.5 267.0 L 1613.5 271.0 L 1602.5 286.0 L 1552.5 351.0 L 1391.5 562.0 L 1117.5 536.0 L 1021.0 526.5 L 1022.0 521.5 L 1025.0 517.5 L 1034.0 504.5 L 1080.0 442.5 L 1241.5 221.0 Z" /><path desc="l 0 p 4" fill="rgb(0,0,0)" stroke="rgb(0,0,0)" stroke-width="1" opacity="1.0" d="M 1655.5 297.0 L 1660.0 297.5 L 1769.0 543.5 L 1797.0 606.5 L 1804.5 624.0 L 1807.0 629.5 L 1808.0 636.5 L 1590.5 935.0 L 1585.0 934.5 L 1481.0 698.5 L 1447.0 621.5 L 1437.0 598.5 L 1435.0 594.5 L 1434.0 586.5 L 1655.5 297.0 Z" /><path desc="l 44 p 4" fill="rgb(142,59,59)" stroke="rgb(142,59,59)" stroke-width="1" opacity="1.0" d="M 729.5 304.0 L 738.0 304.5 L 744.5 306.0 L 773.5 311.0 L 890.0 331.5 L 887.5 337.0 L 886.0 337.5 L 877.5 350.0 L 875.0 351.5 L 868.5 361.0 L 849.5 386.0 L 847.0 387.5 L 838.5 400.0 L 837.0 400.5 L 828.5 413.0 L 825.0 415.5 L 812.5 433.0 L 810.0 434.5 L 805.5 442.0 L 804.0 442.5 L 801.5 447.0 L 800.0 447.5 L 795.5 455.0 L 784.0 454.5 L 770.5 452.0 L 762.0 451.5 L 756.0 450.5 L 731.5 447.0 L 682.5 440.0 L 637.5 433.0 L 635.5 434.0 L 626.0 431.5 L 628.5 426.0 L 631.0 424.5 L 632.5 422.0 L 634.0 421.5 L 637.5 415.0 L 640.0 413.5 L 642.5 409.0 L 644.0 408.5 L 661.5 386.0 L 663.0 385.5 L 666.5 380.0 L 668.0 379.5 L 670.5 375.0 L 672.0 374.5 L 675.5 369.0 L 677.0 368.5 L 694.5 345.0 L 697.0 343.5 L 718.5 316.0 L 720.0 315.5 L 729.5 304.0 Z" /><path desc="l 0 p 5" fill="rgb(0,0,0)" stroke="rgb(0,0,0)" stroke-width="1" opacity="1.0" d="M 730.5 305.0 L 888.0 332.5 L 886.0 336.5 L 882.0 342.5 L 873.0 352.5 L 866.5 362.0 L 864.0 363.5 L 859.5 371.0 L 857.0 372.5 L 838.5 398.0 L 836.0 399.5 L 821.5 419.0 L 820.0 419.5 L 794.5 454.0 L 774.0 451.5 L 760.5 449.0 L 758.5 450.0 L 745.0 447.5 L 724.0 444.5 L 650.5 434.0 L 628.0 430.5 L 652.5 399.0 L 654.0 398.5 L 670.5 377.0 L 673.0 375.5 L 676.5 370.0 L 678.0 369.5 L 685.5 359.0 L 687.0 358.5 L 719.5 317.0 L 721.0 316.5 L 728.5 306.0 L 730.5 305.0 Z" /><path desc="l 44 p 5" fill="rgb(142,59,59)" stroke="rgb(142,59,59)" stroke-width="1" opacity="1.0" d="M 564.5 472.0 Q 570.7000122070312 478.79998779296875 583.0 479.5 L 600.5 482.0 L 625.5 486.0 L 638.0 487.5 L 650.5 490.0 L 652.5 490.0 L 661.5 491.0 L 674.5 493.0 L 685.5 495.0 L 687.5 494.0 L 699.5 497.0 L 701.5 497.0 L 717.5 499.0 L 732.5 501.0 L 743.5 503.0 L 745.5 503.0 L 789.5 509.0 L 799.0 510.5 L 807.5 511.0 L 817.5 508.0 L 816.5 510.0 L 804.5 513.0 L 799.5 512.0 L 789.5 511.0 L 750.5 505.0 L 735.5 503.0 L 719.5 500.0 L 717.5 500.0 L 686.5 496.0 L 666.5 493.0 L 656.5 491.0 L 654.5 492.0 L 638.5 489.0 L 600.0 483.5 L 579.5 481.0 L 570.5 478.0 L 564.5 472.0 Z" /><path desc="l 44 p 6" fill="rgb(142,59,59)" stroke="rgb(142,59,59)" stroke-width="1" opacity="1.0" d="M 382.5 536.0 L 385.0 536.5 L 382.5 537.0 L 382.5 536.0 Z" /><path desc="l 51 p 0" fill="rgb(151,164,165)" stroke="rgb(151,164,165)" stroke-width="1" opacity="1.0" d="M 385.5 536.0 L 391.0 536.5 L 385.5 537.0 L 385.5 536.0 Z" /><path desc="l 44 p 7" fill="rgb(142,59,59)" stroke="rgb(142,59,59)" stroke-width="1" opacity="1.0" d="M 391.5 536.0 L 394.0 536.5 L 391.5 537.0 L 391.5 536.0 Z" /><path desc="l 1 p 0" fill="rgb(221,239,241)" stroke="rgb(221,239,241)" stroke-width="1" opacity="1.0" d="M 381.5 537.0 Q 394.6000061035156 535.4000244140625 401.0 540.5 L 413.0 550.5 L 530.0 673.5 L 555.0 699.5 L 563.5 709.0 Q 571.4000244140625 718.0999755859375 569.0 737.5 L 565.0 746.5 L 561.5 757.0 L 552.5 787.0 L 524.0 884.5 L 510.0 931.5 L 504.5 950.0 Q 501.29998779296875 959.2999877929688 493.5 964.0 L 476.0 969.5 L 447.0 976.5 L 328.0 1005.5 L 291.0 1014.5 L 272.5 1019.0 L 265.0 1020.5 L 258.5 1021.0 L 251.0 1018.5 L 240.5 1011.0 L 227.0 997.5 L 124.0 889.5 L 94.0 857.5 L 84.0 845.5 Q 78.5 839.5 80.0 826.5 L 126.5 668.0 L 139.5 624.0 L 143.0 612.5 Q 145.1999969482422 600.7000122070312 153.5 595.0 Q 159.3000030517578 590.2999877929688 168.5 589.0 L 178.5 587.0 L 221.5 576.0 L 381.5 537.0 Z" /><path desc="l 44 p 8" fill="rgb(142,59,59)" stroke="rgb(142,59,59)" stroke-width="1" opacity="1.0" d="M 402.5 540.0 L 403.5 542.0 L 402.5 540.0 Z" /><path desc="l 51 p 1" fill="rgb(151,164,165)" stroke="rgb(151,164,165)" stroke-width="1" opacity="1.0" d="M 404.5 542.0 L 405.5 544.0 L 404.5 542.0 Z" /><path desc="l 44 p 9" fill="rgb(142,59,59)" stroke="rgb(142,59,59)" stroke-width="1" opacity="1.0" d="M 406.5 543.0 L 413.5 551.0 L 406.5 543.0 Z" /><path desc="l 51 p 2" fill="rgb(151,164,165)" stroke="rgb(151,164,165)" stroke-width="1" opacity="1.0" d="M 413.5 551.0 L 424.5 563.0 L 413.5 551.0 Z" /><path desc="l 44 p 10" fill="rgb(142,59,59)" stroke="rgb(142,59,59)" stroke-width="1" opacity="1.0" d="M 425.5 563.0 L 433.5 572.0 L 425.5 563.0 Z" /><path desc="l 51 p 3" fill="rgb(151,164,165)" stroke="rgb(151,164,165)" stroke-width="1" opacity="1.0" d="M 433.5 572.0 L 444.5 584.0 L 433.5 572.0 Z" /><path desc="l 0 p 6" fill="rgb(0,0,0)" stroke="rgb(0,0,0)" stroke-width="1" opacity="1.0" d="M 1017.5 577.0 L 1038.0 578.5 L 1080.0 582.5 L 1252.5 599.0 L 1352.0 608.5 L 1378.5 611.0 L 1389.0 612.5 L 1499.0 862.5 L 1502.0 867.5 L 1507.0 880.5 L 1528.0 926.5 L 1536.5 946.0 L 1539.0 951.5 L 1540.0 957.5 L 1529.5 958.0 L 1524.5 957.0 L 1515.5 956.0 L 1482.0 952.5 L 1463.5 951.0 L 1458.5 950.0 L 1449.5 949.0 L 1411.5 945.0 L 1266.0 929.5 L 1195.5 922.0 L 1176.5 920.0 L 1169.5 919.0 L 1166.0 917.5 L 1056.0 669.5 L 1030.5 612.0 L 1020.5 589.0 L 1018.0 583.5 L 1017.5 577.0 Z" /><path desc="l 44 p 11" fill="rgb(142,59,59)" stroke="rgb(142,59,59)" stroke-width="1" opacity="1.0" d="M 445.5 584.0 L 455.5 595.0 L 445.5 584.0 Z" /><path desc="l 0 p 7" fill="rgb(0,0,0)" stroke="rgb(0,0,0)" stroke-width="1" opacity="1.0" d="M 375.5 591.0 Q 380.29998779296875 589.7999877929688 381.5 592.0 L 385.0 595.5 L 399.0 609.5 L 472.5 687.0 L 491.0 706.5 L 496.0 711.5 Q 499.0 712.5 498.0 717.5 L 378.0 744.5 L 348.5 751.0 L 342.0 752.5 L 333.5 753.0 L 254.0 664.5 L 232.5 641.0 L 227.5 635.0 Q 224.0 634.0 225.0 628.5 L 249.5 622.0 L 284.5 614.0 L 375.5 591.0 Z" /><path desc="l 44 p 12" fill="rgb(142,59,59)" stroke="rgb(142,59,59)" stroke-width="1" opacity="1.0" d="M 154.5 593.0 L 153.5 595.0 L 154.5 593.0 Z" /><path desc="l 51 p 4" fill="rgb(151,164,165)" stroke="rgb(151,164,165)" stroke-width="1" opacity="1.0" d="M 155.5 593.0 L 154.5 595.0 L 155.5 593.0 Z" /><path desc="l 51 p 5" fill="rgb(151,164,165)" stroke="rgb(151,164,165)" stroke-width="1" opacity="1.0" d="M 152.5 595.0 L 149.5 599.0 L 152.5 595.0 Z" /><path desc="l 51 p 6" fill="rgb(151,164,165)" stroke="rgb(151,164,165)" stroke-width="1" opacity="1.0" d="M 455.5 595.0 L 464.5 605.0 L 455.5 595.0 Z" /><path desc="l 44 p 13" fill="rgb(142,59,59)" stroke="rgb(142,59,59)" stroke-width="1" opacity="1.0" d="M 148.5 599.0 L 147.5 601.0 L 148.5 599.0 Z" /><path desc="l 51 p 7" fill="rgb(151,164,165)" stroke="rgb(151,164,165)" stroke-width="1" opacity="1.0" d="M 147.5 601.0 L 146.5 603.0 L 147.5 601.0 Z" /><path desc="l 44 p 14" fill="rgb(142,59,59)" stroke="rgb(142,59,59)" stroke-width="1" opacity="1.0" d="M 465.5 605.0 L 476.5 617.0 L 465.5 605.0 Z" /><path desc="l 51 p 8" fill="rgb(151,164,165)" stroke="rgb(151,164,165)" stroke-width="1" opacity="1.0" d="M 475.5 616.0 L 485.5 627.0 L 475.5 616.0 Z" /><path desc="l 44 p 15" fill="rgb(142,59,59)" stroke="rgb(142,59,59)" stroke-width="1" opacity="1.0" d="M 486.5 627.0 L 496.5 638.0 L 486.5 627.0 Z" /><path desc="l 51 p 9" fill="rgb(151,164,165)" stroke="rgb(151,164,165)" stroke-width="1" opacity="1.0" d="M 496.5 638.0 L 506.5 649.0 L 496.5 638.0 Z" /><path desc="l 44 p 16" fill="rgb(142,59,59)" stroke="rgb(142,59,59)" stroke-width="1" opacity="1.0" d="M 507.5 649.0 L 516.5 659.0 L 507.5 649.0 Z" /><path desc="l 51 p 10" fill="rgb(151,164,165)" stroke="rgb(151,164,165)" stroke-width="1" opacity="1.0" d="M 516.5 659.0 L 527.5 671.0 L 516.5 659.0 Z" /><path desc="l 0 p 8" fill="rgb(0,0,0)" stroke="rgb(0,0,0)" stroke-width="1" opacity="1.0" d="M 181.5 662.0 L 187.0 662.5 L 266.0 751.5 L 287.5 775.0 L 292.5 781.0 Q 295.5 781.5 295.0 785.5 L 295.0 792.5 L 253.5 946.0 Q 248.3000030517578 947.2999877929688 247.0 944.5 L 241.0 938.5 L 165.0 858.5 L 145.5 838.0 L 138.0 829.5 Q 133.3000030517578 827.7999877929688 135.0 819.5 L 181.5 662.0 Z" /><path desc="l 44 p 17" fill="rgb(142,59,59)" stroke="rgb(142,59,59)" stroke-width="1" opacity="1.0" d="M 528.5 671.0 L 538.5 682.0 L 528.5 671.0 Z" /><path desc="l 51 p 11" fill="rgb(151,164,165)" stroke="rgb(151,164,165)" stroke-width="1" opacity="1.0" d="M 536.5 680.0 L 547.5 692.0 L 536.5 680.0 Z" /><path desc="l 44 p 18" fill="rgb(142,59,59)" stroke="rgb(142,59,59)" stroke-width="1" opacity="1.0" d="M 548.5 692.0 L 558.5 703.0 L 548.5 692.0 Z" /><path desc="l 51 p 12" fill="rgb(151,164,165)" stroke="rgb(151,164,165)" stroke-width="1" opacity="1.0" d="M 558.5 703.0 L 562.5 708.0 L 558.5 703.0 Z" /><path desc="l 44 p 19" fill="rgb(142,59,59)" stroke="rgb(142,59,59)" stroke-width="1" opacity="1.0" d="M 563.5 708.0 L 564.5 710.0 L 563.5 708.0 Z" /><path desc="l 51 p 13" fill="rgb(151,164,165)" stroke="rgb(151,164,165)" stroke-width="1" opacity="1.0" d="M 564.5 710.0 L 567.0 713.5 L 565.0 712.5 L 564.5 710.0 Z" /><path desc="l 51 p 14" fill="rgb(151,164,165)" stroke="rgb(151,164,165)" stroke-width="1" opacity="1.0" d="M 568.5 718.0 L 569.0 720.5 L 568.0 720.5 L 568.5 718.0 Z" /><path desc="l 44 p 20" fill="rgb(142,59,59)" stroke="rgb(142,59,59)" stroke-width="1" opacity="1.0" d="M 569.5 720.0 L 570.0 724.5 L 569.0 724.5 L 569.5 720.0 Z" /><path desc="l 51 p 15" fill="rgb(151,164,165)" stroke="rgb(151,164,165)" stroke-width="1" opacity="1.0" d="M 569.5 725.0 L 570.0 729.5 L 569.0 729.5 L 569.5 725.0 Z" /><path desc="l 44 p 21" fill="rgb(142,59,59)" stroke="rgb(142,59,59)" stroke-width="1" opacity="1.0" d="M 569.5 730.0 L 570.0 737.5 L 569.0 737.5 L 569.5 730.0 Z" /><path desc="l 51 p 16" fill="rgb(151,164,165)" stroke="rgb(151,164,165)" stroke-width="1" opacity="1.0" d="M 566.5 744.0 L 567.0 745.5 L 565.0 746.5 L 566.5 744.0 Z" /><path desc="l 44 p 22" fill="rgb(142,59,59)" stroke="rgb(142,59,59)" stroke-width="1" opacity="1.0" d="M 566.5 746.0 L 565.5 748.0 L 566.5 746.0 Z" /><path desc="l 0 p 9" fill="rgb(0,0,0)" stroke="rgb(0,0,0)" stroke-width="1" opacity="1.0" d="M 495.5 769.0 L 503.0 769.5 L 502.0 777.5 L 500.0 784.5 L 489.0 821.5 L 459.5 921.0 L 379.0 940.5 L 341.5 949.0 L 315.5 956.0 L 310.5 957.0 L 303.5 958.0 L 303.0 952.5 L 343.5 803.0 L 454.0 778.5 L 495.5 769.0 Z" /><path desc="l 44 p 23" fill="rgb(142,59,59)" stroke="rgb(142,59,59)" stroke-width="1" opacity="1.0" d="M 79.5 826.0 L 80.0 836.5 L 79.0 836.5 L 79.5 826.0 Z" /><path desc="l 44 p 24" fill="rgb(142,59,59)" stroke="rgb(142,59,59)" stroke-width="1" opacity="1.0" d="M 83.5 846.0 L 84.5 848.0 L 83.5 846.0 Z" /><path desc="l 51 p 17" fill="rgb(151,164,165)" stroke="rgb(151,164,165)" stroke-width="1" opacity="1.0" d="M 85.5 848.0 L 86.5 850.0 L 85.5 848.0 Z" /><path desc="l 44 p 25" fill="rgb(142,59,59)" stroke="rgb(142,59,59)" stroke-width="1" opacity="1.0" d="M 86.5 850.0 L 91.5 856.0 L 86.5 850.0 Z" /><path desc="l 51 p 18" fill="rgb(151,164,165)" stroke="rgb(151,164,165)" stroke-width="1" opacity="1.0" d="M 92.5 856.0 L 103.5 868.0 L 92.5 856.0 Z" /><path desc="l 44 p 26" fill="rgb(142,59,59)" stroke="rgb(142,59,59)" stroke-width="1" opacity="1.0" d="M 103.5 868.0 L 112.5 878.0 L 103.5 868.0 Z" /><path desc="l 51 p 19" fill="rgb(151,164,165)" stroke="rgb(151,164,165)" stroke-width="1" opacity="1.0" d="M 113.5 878.0 L 123.5 889.0 L 113.5 878.0 Z" /><path desc="l 44 p 27" fill="rgb(142,59,59)" stroke="rgb(142,59,59)" stroke-width="1" opacity="1.0" d="M 123.5 889.0 L 132.5 899.0 L 123.5 889.0 Z" /><path desc="l 51 p 20" fill="rgb(151,164,165)" stroke="rgb(151,164,165)" stroke-width="1" opacity="1.0" d="M 133.5 899.0 L 143.5 910.0 L 133.5 899.0 Z" /><path desc="l 44 p 28" fill="rgb(142,59,59)" stroke="rgb(142,59,59)" stroke-width="1" opacity="1.0" d="M 144.5 911.0 L 153.5 921.0 L 144.5 911.0 Z" /><path desc="l 51 p 21" fill="rgb(151,164,165)" stroke="rgb(151,164,165)" stroke-width="1" opacity="1.0" d="M 154.5 921.0 L 165.5 933.0 L 154.5 921.0 Z" /><path desc="l 44 p 29" fill="rgb(142,59,59)" stroke="rgb(142,59,59)" stroke-width="1" opacity="1.0" d="M 164.5 932.0 L 174.5 943.0 L 164.5 932.0 Z" /><path desc="l 51 p 22" fill="rgb(151,164,165)" stroke="rgb(151,164,165)" stroke-width="1" opacity="1.0" d="M 175.5 943.0 L 186.5 955.0 L 175.5 943.0 Z" /><path desc="l 44 p 30" fill="rgb(142,59,59)" stroke="rgb(142,59,59)" stroke-width="1" opacity="1.0" d="M 186.5 955.0 L 194.5 964.0 L 186.5 955.0 Z" /><path desc="l 51 p 23" fill="rgb(151,164,165)" stroke="rgb(151,164,165)" stroke-width="1" opacity="1.0" d="M 501.5 956.0 L 495.5 963.0 L 501.5 956.0 Z" /><path desc="l 44 p 31" fill="rgb(142,59,59)" stroke="rgb(142,59,59)" stroke-width="1" opacity="1.0" d="M 500.5 958.0 L 496.5 963.0 L 500.5 958.0 Z" /><path desc="l 44 p 32" fill="rgb(142,59,59)" stroke="rgb(142,59,59)" stroke-width="1" opacity="1.0" d="M 494.5 963.0 L 493.5 965.0 L 494.5 963.0 Z" /><path desc="l 51 p 24" fill="rgb(151,164,165)" stroke="rgb(151,164,165)" stroke-width="1" opacity="1.0" d="M 195.5 964.0 L 206.5 976.0 L 195.5 964.0 Z" /><path desc="l 44 p 33" fill="rgb(142,59,59)" stroke="rgb(142,59,59)" stroke-width="1" opacity="1.0" d="M 205.5 975.0 L 215.5 986.0 L 205.5 975.0 Z" /><path desc="l 51 p 25" fill="rgb(151,164,165)" stroke="rgb(151,164,165)" stroke-width="1" opacity="1.0" d="M 216.5 986.0 L 226.5 997.0 L 216.5 986.0 Z" /><path desc="l 44 p 34" fill="rgb(142,59,59)" stroke="rgb(142,59,59)" stroke-width="1" opacity="1.0" d="M 226.5 997.0 L 236.5 1008.0 L 226.5 997.0 Z" /><path desc="l 51 p 26" fill="rgb(151,164,165)" stroke="rgb(151,164,165)" stroke-width="1" opacity="1.0" d="M 237.5 1008.0 L 242.5 1014.0 L 237.5 1008.0 Z" /><path desc="l 44 p 35" fill="rgb(142,59,59)" stroke="rgb(142,59,59)" stroke-width="1" opacity="1.0" d="M 243.5 1014.0 L 244.5 1016.0 L 243.5 1014.0 Z" /><path desc="l 51 p 27" fill="rgb(151,164,165)" stroke="rgb(151,164,165)" stroke-width="1" opacity="1.0" d="M 245.5 1015.0 L 246.5 1017.0 L 245.5 1015.0 Z" /><path desc="l 51 p 28" fill="rgb(151,164,165)" stroke="rgb(151,164,165)" stroke-width="1" opacity="1.0" d="M 252.5 1019.0 L 255.0 1019.5 L 252.5 1020.0 L 252.5 1019.0 Z" /></svg>